<svg width="81" height="130" xmlns="http://www.w3.org/2000/svg" xmlns:xlink="http://www.w3.org/1999/xlink" overflow="hidden"><g transform="translate(-158 -295)"><path d="M168.844 358.242 169.082 410.353 214.33 384.504 187 384.385C186.093 384.392 185.231 384.15 184.466 383.708 183.7 383.266 183.068 382.626 182.612 381.852ZM227.216 309.662 171.036 341.762 189.964 374.185 227.506 374.365ZM234.833 296.47C236.408 297.379 237.366 299.052 237.379 300.865L237.722 379.891C237.727 381.719 236.741 383.427 235.156 384.337L166.553 423.538C164.976 424.433 163.049 424.44 161.474 423.53 159.899 422.621 158.941 420.949 158.928 419.135L158.576 340.123C158.572 338.295 159.557 336.588 161.143 335.678L229.753 296.463C231.33 295.567 233.258 295.56 234.833 296.47Z" fill="#4036E3" fill-rule="evenodd"/></g></svg>